<svg width="256" height="256" viewBox="0 0 256 256" fill="none" xmlns="http://www.w3.org/2000/svg">
<path fill-rule="evenodd" clip-rule="evenodd" d="M248.284 7.92878C258.047 17.6919 258.047 33.521 248.284 43.2841L163.462 128.106L248.678 213.322C258.441 223.085 258.441 238.915 248.678 248.678C238.915 258.441 223.085 258.441 213.322 248.678L128.106 163.462L43.2841 248.284C33.521 258.047 17.6919 258.047 7.92878 248.284C-1.83433 238.521 -1.83433 222.692 7.92878 212.929L92.7511 128.106L8.32233 43.6777C-1.44077 33.9146 -1.44077 18.0854 8.32233 8.32233C18.0854 -1.44078 33.9146 -1.44078 43.6777 8.32233L128.106 92.7511L212.929 7.92878C222.692 -1.83433 238.521 -1.83433 248.284 7.92878Z" fill="black"/>
</svg>
